<?xml version="1.0" encoding="iso-8859-1"?>
<!-- Uploaded to: SVG Repo, www.svgrepo.com, Generator: SVG Repo Mixer Tools -->
<svg fill="#000000" height="800px" width="800px" version="1.1" id="Capa_1" xmlns="http://www.w3.org/2000/svg" xmlns:xlink="http://www.w3.org/1999/xlink" 
	 viewBox="0 0 466 466" xml:space="preserve">
<g>
	<path d="M233.444,170.164c43.565,0,83.449-17.232,104.087-44.972c2.108-2.834,2.108-6.716,0-9.551
		c-20.638-27.739-60.521-44.972-104.087-44.972c-43.564,0-83.447,17.232-104.086,44.972c-2.108,2.834-2.108,6.716,0,9.551
		C149.996,152.931,189.88,170.164,233.444,170.164z M199.698,120.417c0-18.608,15.139-33.747,33.746-33.747
		c18.608,0,33.747,15.139,33.747,33.747s-15.139,33.747-33.747,33.747C214.837,154.164,199.698,139.025,199.698,120.417z
		 M320.804,120.417c-11.108,12.5-27.265,22.095-46.126,27.804c5.373-7.943,8.514-17.513,8.514-27.804
		c0-10.29-3.141-19.861-8.514-27.803C293.539,98.322,309.696,107.917,320.804,120.417z M192.212,92.613
		c-5.373,7.943-8.514,17.513-8.514,27.804c0,10.291,3.141,19.861,8.514,27.804c-18.862-5.709-35.018-15.304-46.126-27.804
		C157.194,107.917,173.351,98.322,192.212,92.613z"/>
	<path d="M452.158,233.771c-0.659-2.163-2.204-3.946-4.251-4.908c-51.781-24.322-74.873-55.159-74.873-99.988
		C373.034,44.268,302.812,0,233.445,0h-0.891C163.188,0,92.966,44.268,92.966,128.875c0,44.829-23.092,75.666-74.873,99.988
		c-2.047,0.962-3.592,2.745-4.251,4.908c-0.659,2.164-0.372,4.505,0.79,6.445c12.86,21.46,36.375,34.791,61.368,34.791
		c19.565,0,37.659-7.898,50.776-21.309V402.01c0,22.465,18.276,40.742,40.741,40.742c9.695,0,18.611-3.405,25.614-9.081
		C197.018,452.114,213.417,466,233,466s35.982-13.886,39.868-32.33c7.003,5.676,15.919,9.081,25.614,9.081
		c22.465,0,40.741-18.277,40.741-40.742V253.699c13.117,13.41,31.211,21.309,50.776,21.309c24.993,0,48.508-13.331,61.368-34.791
		C452.53,238.276,452.817,235.935,452.158,233.771z M108.966,128.875C108.966,54.772,171.139,16,232.555,16h0.891
		c61.416,0,123.589,38.772,123.589,112.875c0,24.893,6.115,45.815,18.652,63.928c-13.041,10.465-28.277,19.267-45.126,26.199
		c-0.282,0.024-0.565,0.057-0.848,0.112c-1.311,0.252-2.491,0.822-3.479,1.612c-18.724,7.234-39.305,12.218-60.968,14.687
		c-0.255,0.015-0.506,0.042-0.753,0.08c-10.149,1.128-20.529,1.715-31.067,1.715c-55.137,0-107.87-16.679-142.812-44.874
		C102.953,174.328,108.966,153.553,108.966,128.875z M76,259.007c-16.732,0-32.104-7.289-42.566-19.854
		c19.867-10.199,35.45-21.531,47.215-34.307c12.693,10.267,27.275,19.061,43.288,26.223C114.145,248.258,96.069,259.007,76,259.007z
		 M257.741,425.259C257.741,438.901,246.643,450,233,450s-24.741-11.099-24.741-24.741V402.01v0V309c0-4.418-3.582-8-8-8
		s-8,3.582-8,8v93.01c0,13.643-11.099,24.742-24.741,24.742s-24.741-11.099-24.741-24.742V238.511
		c15.572,5.395,32.181,9.38,49.482,11.826V279c0,4.418,3.582,8,8,8s8-3.582,8-8v-26.863c8.283,0.702,16.688,1.071,25.187,1.071
		c8.193,0,16.3-0.341,24.296-0.995V402.01v0V425.259z M298.482,426.751c-13.643,0-24.741-11.099-24.741-24.742V250.464
		c17.288-2.39,33.897-6.32,49.482-11.653V402.01C323.224,415.652,312.125,426.751,298.482,426.751z M390,259.007
		c-19.948,0-37.93-10.618-47.762-27.627c16.079-7.123,30.73-15.886,43.491-26.124c11.72,12.609,27.183,23.807,46.837,33.897
		C422.104,251.719,406.732,259.007,390,259.007z"/>
</g>
</svg>