<?xml version="1.0" encoding="UTF-8" standalone="no"?>
<!-- Created with Inkscape (http://www.inkscape.org/) -->

<svg
   version="1.1"
   id="svg1"
   width="3000"
   height="3000"
   viewBox="0 0 3000 3000"
   sodipodi:docname="vecteezy_the-sri-yantra-symbol-in-a-circle-on-a-black-background_52188477.eps"
   xmlns:inkscape="http://www.inkscape.org/namespaces/inkscape"
   xmlns:sodipodi="http://sodipodi.sourceforge.net/DTD/sodipodi-0.dtd"
   xmlns="http://www.w3.org/2000/svg"
   xmlns:svg="http://www.w3.org/2000/svg">
  <defs
     id="defs1">
    <clipPath
       clipPathUnits="userSpaceOnUse"
       id="clipPath4">
      <path
         d="M 1310,1308 V 21188 H 21190 V 1308 Z"
         id="path4" />
    </clipPath>
    <clipPath
       clipPathUnits="userSpaceOnUse"
       id="clipPath6">
      <path
         d="M 1310,1308 V 21188 H 21190 V 1308 Z"
         id="path6" />
    </clipPath>
    <clipPath
       clipPathUnits="userSpaceOnUse"
       id="clipPath8">
      <path
         d="M 1310,1308 V 21188 H 21190 V 1308 Z"
         id="path8" />
    </clipPath>
    <clipPath
       clipPathUnits="userSpaceOnUse"
       id="clipPath10">
      <path
         d="M 1310,1308 V 21188 H 21190 V 1308 Z"
         id="path10" />
    </clipPath>
    <clipPath
       clipPathUnits="userSpaceOnUse"
       id="clipPath12">
      <path
         d="M 1310,1308 V 21188 H 21190 V 1308 Z"
         id="path12" />
    </clipPath>
    <clipPath
       clipPathUnits="userSpaceOnUse"
       id="clipPath14">
      <path
         d="M 1310,1308 V 21188 H 21190 V 1308 Z"
         id="path14" />
    </clipPath>
    <clipPath
       clipPathUnits="userSpaceOnUse"
       id="clipPath16">
      <path
         d="M 1310,1308 V 21188 H 21190 V 1308 Z"
         id="path16" />
    </clipPath>
    <clipPath
       clipPathUnits="userSpaceOnUse"
       id="clipPath18">
      <path
         d="M 1310,1308 V 21188 H 21190 V 1308 Z"
         id="path18" />
    </clipPath>
    <clipPath
       clipPathUnits="userSpaceOnUse"
       id="clipPath20">
      <path
         d="M 1310,1308 V 21188 H 21190 V 1308 Z"
         id="path20" />
    </clipPath>
    <clipPath
       clipPathUnits="userSpaceOnUse"
       id="clipPath22">
      <path
         d="M 1310,1308 V 21188 H 21190 V 1308 Z"
         id="path22" />
    </clipPath>
    <clipPath
       clipPathUnits="userSpaceOnUse"
       id="clipPath24">
      <path
         d="M 1310,1308 V 21188 H 21190 V 1308 Z"
         id="path24" />
    </clipPath>
    <clipPath
       clipPathUnits="userSpaceOnUse"
       id="clipPath26">
      <path
         d="M 1310,1308 V 21188 H 21190 V 1308 Z"
         id="path26" />
    </clipPath>
    <clipPath
       clipPathUnits="userSpaceOnUse"
       id="clipPath28">
      <path
         d="M 1310,1308 V 21188 H 21190 V 1308 Z"
         id="path28" />
    </clipPath>
    <clipPath
       clipPathUnits="userSpaceOnUse"
       id="clipPath30">
      <path
         d="M 1310,1308 V 21188 H 21190 V 1308 Z"
         id="path30" />
    </clipPath>
    <clipPath
       clipPathUnits="userSpaceOnUse"
       id="clipPath32">
      <path
         d="M 1310,1308 V 21188 H 21190 V 1308 Z"
         id="path32" />
    </clipPath>
    <clipPath
       clipPathUnits="userSpaceOnUse"
       id="clipPath34">
      <path
         d="M 1310,1310 H 21190 V 21190 H 1310 Z"
         id="path34" />
    </clipPath>
    <clipPath
       clipPathUnits="userSpaceOnUse"
       id="clipPath36">
      <path
         d="M 1310,1310 H 21190 V 21190 H 1310 Z"
         id="path36" />
    </clipPath>
    <clipPath
       clipPathUnits="userSpaceOnUse"
       id="clipPath38">
      <path
         d="M 1310,1310 H 21190 V 21190 H 1310 Z"
         id="path38" />
    </clipPath>
    <clipPath
       clipPathUnits="userSpaceOnUse"
       id="clipPath40">
      <path
         d="m 1310.59,1310.58 h 19878.8 v 19878.8 H 1310.59 Z"
         id="path40" />
    </clipPath>
    <clipPath
       clipPathUnits="userSpaceOnUse"
       id="clipPath42">
      <path
         d="m 1310.59,1310.58 h 19878.8 v 19878.8 H 1310.59 Z"
         id="path42" />
    </clipPath>
    <clipPath
       clipPathUnits="userSpaceOnUse"
       id="clipPath44">
      <path
         d="M 1310,1310 H 21190 V 21190 H 1310 Z"
         id="path44" />
    </clipPath>
  </defs>
  <sodipodi:namedview
     id="namedview1"
     pagecolor="#ffffff"
     bordercolor="#000000"
     borderopacity="0.25"
     inkscape:showpageshadow="2"
     inkscape:pageopacity="0.0"
     inkscape:pagecheckerboard="0"
     inkscape:deskcolor="#d1d1d1">
    <inkscape:page
       x="0"
       y="0"
       inkscape:label="1"
       id="page1"
       width="3000"
       height="3000"
       margin="0"
       bleed="0" />
  </sodipodi:namedview>
  <g
     id="g1"
     inkscape:groupmode="layer"
     inkscape:label="1">
    <path
       id="path1"
       d="M 0,0 H 22500 V 22500 H 0 Z"
       style="fill:#1a1a1a;fill-opacity:0;fill-rule:nonzero;stroke:none"
       transform="matrix(0.13333333,0,0,-0.13333333,0,3000)" />
    <path
       id="path2"
       d="m 11267.7,18753.3 -1882.35,-2160 H 5932.42 V 13197.9 L 3739.45,11266.7 5932.42,9335.55 V 5940.16 h 3423.79 l 1911.49,-2193.52 1911.6,2193.52 h 3423.8 v 3446.52 l 2157.2,1880.02 -2157.2,1880.1 v 3446.5 h -3453 z M 6369.06,16154.4 h 9791.56 V 6378.93 H 6369.06 Z"
       style="fill:none;stroke:#ffffff;stroke-width:60.0001;stroke-linecap:round;stroke-linejoin:miter;stroke-miterlimit:4;stroke-dasharray:none;stroke-opacity:1"
       transform="matrix(0.13333333,0,0,-0.13333333,0,3000)" />
    <path
       id="path3"
       d="m 11287.9,11248.1 c 0,-20.9 -17,-37.9 -37.9,-37.9 -20.9,0 -37.9,17 -37.9,37.9 0,20.9 17,37.9 37.9,37.9 20.9,0 37.9,-17 37.9,-37.9 z"
       style="fill:#000000;fill-opacity:1;fill-rule:nonzero;stroke:#ffffff;stroke-width:60.0001;stroke-linecap:butt;stroke-linejoin:miter;stroke-miterlimit:4;stroke-dasharray:none;stroke-opacity:1"
       transform="matrix(0.13333333,0,0,-0.13333333,0,3000)"
       clip-path="url(#clipPath4)" />
    <path
       id="path5"
       d="m 11258.9,14044.1 2716.8,-3435.4 h -2716.8 m -17.8,3435.4 -2716.84,-3435.4 h 2716.84"
       style="fill:none;stroke:#ffffff;stroke-width:60.0001;stroke-linecap:butt;stroke-linejoin:miter;stroke-miterlimit:4;stroke-dasharray:none;stroke-opacity:1"
       transform="matrix(0.13333333,0,0,-0.13333333,0,3000)"
       clip-path="url(#clipPath6)" />
    <path
       id="path7"
       d="m 11258.9,13311.8 2025.8,-3443.6 h -2025.8 m -17.8,3443.6 -2025.83,-3443.6 h 2025.83"
       style="fill:none;stroke:#ffffff;stroke-width:60.0001;stroke-linecap:butt;stroke-linejoin:miter;stroke-miterlimit:4;stroke-dasharray:none;stroke-opacity:1"
       transform="matrix(0.13333333,0,0,-0.13333333,0,3000)"
       clip-path="url(#clipPath8)" />
    <path
       id="path9"
       d="m 11250,12074.4 1373.9,-2781.43 h -1365 M 11250,12074.4 9876.13,9292.97 h 1364.97"
       style="fill:none;stroke:#ffffff;stroke-width:60.0001;stroke-linecap:butt;stroke-linejoin:miter;stroke-miterlimit:4;stroke-dasharray:none;stroke-opacity:1"
       transform="matrix(0.13333333,0,0,-0.13333333,0,3000)"
       clip-path="url(#clipPath10)" />
    <path
       id="path11"
       d="m 11258.9,12649.6 943.5,-1672.6 h -943.5 m -17.8,1672.6 -943.5,-1672.6 h 943.5"
       style="fill:none;stroke:#ffffff;stroke-width:60.0001;stroke-linecap:butt;stroke-linejoin:miter;stroke-miterlimit:4;stroke-dasharray:none;stroke-opacity:1"
       transform="matrix(0.13333333,0,0,-0.13333333,0,3000)"
       clip-path="url(#clipPath12)" />
    <path
       id="path13"
       d="m 11258.9,13311.8 h 1534.2 L 11258.9,10977 m -17.8,2334.8 H 9706.95 L 11241.1,10977"
       style="fill:none;stroke:#ffffff;stroke-width:60.0001;stroke-linecap:butt;stroke-linejoin:miter;stroke-miterlimit:4;stroke-dasharray:none;stroke-opacity:1"
       transform="matrix(0.13333333,0,0,-0.13333333,0,3000)"
       clip-path="url(#clipPath14)" />
    <path
       id="path15"
       d="m 11258.9,12649.6 1935.5,5 -1935.5,-3361.63 m -17.8,3356.63 -1935.51,5 1935.51,-3361.63"
       style="fill:none;stroke:#ffffff;stroke-width:60.0001;stroke-linecap:butt;stroke-linejoin:miter;stroke-miterlimit:4;stroke-dasharray:none;stroke-opacity:1"
       transform="matrix(0.13333333,0,0,-0.13333333,0,3000)"
       clip-path="url(#clipPath16)" />
    <path
       id="path17"
       d="m 11250,12074.4 h 2698.9 l -2690,-3622.45 m -8.9,3622.45 H 8551.05 L 11241.1,8451.95"
       style="fill:none;stroke:#ffffff;stroke-width:60.0001;stroke-linecap:butt;stroke-linejoin:miter;stroke-miterlimit:4;stroke-dasharray:none;stroke-opacity:1"
       transform="matrix(0.13333333,0,0,-0.13333333,0,3000)"
       clip-path="url(#clipPath18)" />
    <path
       id="path19"
       d="m 11249.4,14058.8 2726.3,-3450.1 h -2731.6 m 6.5,3450.1 -2726.34,-3450.1 h 2731.64"
       style="fill:none;stroke:#ffffff;stroke-width:60.0001;stroke-linecap:round;stroke-linejoin:miter;stroke-miterlimit:4;stroke-dasharray:none;stroke-opacity:1"
       transform="matrix(0.13333333,0,0,-0.13333333,0,3000)"
       clip-path="url(#clipPath20)" />
    <path
       id="path21"
       d="m 11258.9,13311.8 2025.8,-3443.6 -2047.2,1.37 m 3.6,3442.23 -2025.83,-3443.6 2047.23,1.37"
       style="fill:none;stroke:#ffffff;stroke-width:60.0001;stroke-linecap:butt;stroke-linejoin:miter;stroke-miterlimit:4;stroke-dasharray:none;stroke-opacity:1"
       transform="matrix(0.13333333,0,0,-0.13333333,0,3000)"
       clip-path="url(#clipPath22)" />
    <path
       id="path23"
       d="M 11250,12074.4 12623.9,9292.97 H 11246.8 M 11250,12074.4 9876.13,9292.97 H 11253.2"
       style="fill:none;stroke:#ffffff;stroke-width:60.0001;stroke-linecap:butt;stroke-linejoin:miter;stroke-miterlimit:4;stroke-dasharray:none;stroke-opacity:1"
       transform="matrix(0.13333333,0,0,-0.13333333,0,3000)"
       clip-path="url(#clipPath24)" />
    <path
       id="path25"
       d="m 11258.9,12649.6 943.5,-1672.6 -953,-4 m -8.3,1676.6 -943.5,-1672.6 953,-4"
       style="fill:none;stroke:#ffffff;stroke-width:60.0001;stroke-linecap:butt;stroke-linejoin:miter;stroke-miterlimit:4;stroke-dasharray:none;stroke-opacity:1"
       transform="matrix(0.13333333,0,0,-0.13333333,0,3000)"
       clip-path="url(#clipPath26)" />
    <path
       id="path27"
       d="m 11250.8,13311.8 h 1542.3 L 11258.9,10977 m -9.7,2334.8 H 9706.95 L 11241.1,10977"
       style="fill:none;stroke:#ffffff;stroke-width:60.0001;stroke-linecap:butt;stroke-linejoin:miter;stroke-miterlimit:4;stroke-dasharray:none;stroke-opacity:1"
       transform="matrix(0.13333333,0,0,-0.13333333,0,3000)"
       clip-path="url(#clipPath28)" />
    <path
       id="path29"
       d="m 11248.1,12649.6 1946.3,5 -1935.5,-3361.63 m -7,3356.63 -1946.31,5 1935.51,-3361.63"
       style="fill:none;stroke:#ffffff;stroke-width:60.0001;stroke-linecap:butt;stroke-linejoin:miter;stroke-miterlimit:4;stroke-dasharray:none;stroke-opacity:1"
       transform="matrix(0.13333333,0,0,-0.13333333,0,3000)"
       clip-path="url(#clipPath30)" />
    <path
       id="path31"
       d="m 11250,12074.4 h 2698.9 L 11250.8,8441.21 m -0.8,3633.19 H 8551.05 L 11249.2,8441.21"
       style="fill:none;stroke:#ffffff;stroke-width:60.0001;stroke-linecap:round;stroke-linejoin:miter;stroke-miterlimit:4;stroke-dasharray:none;stroke-opacity:1"
       transform="matrix(0.13333333,0,0,-0.13333333,0,3000)"
       clip-path="url(#clipPath32)" />
    <path
       id="path33"
       d="m 12110.8,19440.6 c -6.4,-60.6 97.4,-116 163.3,-145 259.4,-114.2 563.6,-158.8 481.6,-643.1 m -644.9,788.1 c -6.4,-60.6 -119.3,-93.3 -189.8,-107.9 -277.5,-57.7 -584.3,-38.2 -604.8,-528.9 m 1646.1,502.1 c -12.7,-59.8 84.7,-125.9 147.1,-161.5 246.1,-140.5 543.9,-216.7 411.8,-689.9 m -558.9,851.4 c -12.7,-59.8 -128.5,-80.4 -200.1,-87.7 -282,-28.3 -585.1,23.2 -656.8,-462.6 m 1689.4,327.1 c -18.7,-58 71.2,-133.8 129.6,-175.9 230,-165.6 518.2,-272.5 337.4,-729.1 m -467,905 c -18.7,-58 -136.1,-66.4 -208.1,-66.2 -283.4,1.2 -579.4,84.3 -701.4,-391.6 m 1714.3,148.9 c -24.8,-55.7 56.8,-140.5 110.5,-188.5 211.4,-188.8 486.9,-325.2 259.4,-760.4 m -369.9,948.9 c -24.8,-55.7 -142.4,-52 -213.9,-44 -281.8,30.9 -567.4,144.2 -738.6,-316.2 m 1720.6,-31.2 c -30.5,-52.7 41.8,-145.8 90.2,-199 190.5,-209.8 450.1,-374.2 178.4,-783.3 m -268.6,982.3 c -30.5,-52.7 -147.1,-36.7 -217.3,-21.5 -277.1,60.2 -549.3,202.9 -767.6,-237.1 m 1707.9,-210.9 c -35.9,-49.3 26.3,-149.3 68.7,-207.3 167.7,-228.6 408.8,-419.3 95.6,-797.7 m -164.3,1005 c -35.9,-49.3 -150.2,-21.1 -218.4,1.4 -269.2,88.7 -525.1,259.1 -788.2,-155.5 m 1676.5,-388.4 c -40.9,-45.4 10.5,-151.2 46.8,-213.3 142.7,-244.9 362.6,-459.8 11.7,-803.4 m -58.5,1016.7 c -40.9,-45.4 -151.6,-5.3 -217.1,24.2 -258.4,116.5 -495,312.6 -800.1,-72.4 m 1626.7,-561.3 c -45.3,-40.9 -5.3,-151.6 24.2,-217.2 116.5,-258.3 312.6,-495.1 -72.4,-800.1 m 48.2,1017.3 c -45.3,-40.9 -151.2,10.5 -213.3,46.7 -244.9,142.8 -459.7,362.7 -803.4,11.6 m 1559.2,-728.3 c -49.2,-35.9 -21.1,-150.1 1.5,-218.4 88.6,-269.3 259.1,-525.2 -155.6,-788.3 m 154.1,1006.7 c -49.2,-35.9 -149.3,26.2 -207.3,68.8 -228.6,167.6 -419.2,408.7 -797.6,95.6 m 1474.4,-887.5 c -52.8,-30.4 -36.7,-147 -21.4,-217.2 60.1,-277 202.7,-549.3 -237.2,-767.7 m 258.6,984.9 c -52.8,-30.4 -145.7,41.8 -199,90.3 -209.8,190.5 -374.2,450.2 -783.3,178.3 m 1373.7,-1036.6 c -55.7,-24.8 -51.9,-142.5 -44.1,-213.9 30.8,-281.8 144.2,-567.5 -316,-738.7 m 360.1,952.6 c -55.7,-24.8 -140.6,56.8 -188.5,110.4 -188.7,211.6 -325.2,487 -760.3,259.4 M 19082.3,13795 c -58,-18.9 -66.4,-136.2 -66,-208.2 1.2,-283.4 84.1,-579.4 -391.7,-701.5 m 457.7,909.7 c -58,-18.9 -133.9,71.2 -175.8,129.5 -165.6,230 -272.4,518.3 -729.2,337.4 m 1128.1,-1299.7 c -59.5,-12.6 -80.3,-128.4 -87.5,-200 -28.4,-282 23.2,-585.1 -462.7,-656.8 m 550.2,856.8 c -59.5,-12.6 -125.6,84.8 -161.3,147.2 -140.7,246.2 -216.8,544 -689.8,411.9 m 985.9,-1410.4 c -60.5,-6.5 -93.3,-119.5 -107.9,-190 -57.7,-277.4 -38.1,-584.2 -528.8,-604.7 m 636.7,794.7 c -60.5,-6.5 -116,97.3 -145,163.3 -114.1,259.3 -158.7,563.5 -643.1,481.5 m 833.3,-1505.7 c -61,0 -105.3,-109.1 -127.3,-177.6 -86.2,-269.9 -98.9,-577.1 -589.1,-546.2 m 716.4,723.8 c -61,0 -105.3,109.1 -127.3,177.6 -86.2,269.8 -98.9,577 -589.1,546.2 m 671.2,-1584.7 c -60.5,6.5 -116,-97.4 -145,-163.3 -114.1,-259.35 -158.7,-563.5 -643.1,-481.54 m 788.1,644.84 c -60.5,6.5 -93.3,119.5 -107.9,190 -57.6,277.4 -38.1,584.2 -528.8,604.7 m 501.9,-1646.03 c -59.5,12.5 -125.6,-84.8 -161.3,-147.26 -140.7,-246.17 -216.8,-543.95 -689.8,-411.8 m 851.1,559.06 c -59.5,12.5 -80.3,128.44 -87.5,200.04 -28.4,281.99 23.2,585.09 -462.7,656.79 M 19082.3,8705 c -58,18.91 -133.9,-71.17 -175.8,-129.53 -165.6,-230 -272.4,-518.24 -729.2,-337.42 m 905,466.95 c -58,18.91 -66.4,136.17 -66,208.16 1.2,283.36 84.1,579.42 -391.7,701.57 m 148.9,-1714.53 c -55.7,24.8 -140.6,-56.76 -188.5,-110.43 -188.7,-211.53 -325.2,-486.92 -760.3,-259.38 m 948.8,369.81 c -55.7,24.8 -51.9,142.46 -44.1,213.94 30.8,281.76 144.4,567.42 -316,738.63 m -31.3,-1720.58 c -52.8,30.43 -145.7,-41.8 -199,-90.24 -209.8,-190.62 -374.2,-450.27 -783.3,-178.47 m 982.3,268.71 c -52.8,30.43 -36.7,147.03 -21.4,217.26 60.1,276.92 202.7,549.26 -237.2,767.66 m -210.9,-1707.97 c -49.2,35.74 -149.3,-26.25 -207.3,-68.87 -228.6,-167.57 -419.2,-408.63 -797.6,-95.58 m 1004.9,164.45 c -49.2,35.74 -21.1,150.08 1.5,218.4 88.6,269.1 259.1,525.08 -155.6,788.24 m -388.4,-1676.64 c -45.3,40.86 -151.2,-10.51 -213.3,-46.76 -244.9,-142.77 -459.7,-362.65 -803.4,-11.6 m 1016.7,58.36 c -45.3,40.86 -5.3,151.52 24.2,217.19 116.5,258.32 312.6,495.04 -72.4,800.12 m -561.3,-1626.8 c -40.8,45.31 -151.6,5.23 -217,-24.26 -258.5,-116.48 -495.1,-312.66 -800.2,72.42 m 1017.2,-48.16 c -40.8,45.31 10.5,151.13 46.8,213.28 142.8,244.84 362.6,459.69 11.7,803.32 m -728.4,-1559.1 c -35.9,49.22 -150.2,21.05 -218.4,-1.45 -269.2,-88.71 -525.1,-259.1 -788.2,155.55 m 1006.6,-154.06 c -35.9,49.18 26.3,149.26 68.7,207.19 167.6,228.63 408.8,419.29 95.6,797.69 m -887.3,-1474.45 c -30.5,52.73 -147.1,36.68 -217.3,21.44 -277.1,-60.11 -549.2,-202.89 -767.6,237.15 m 984.9,-258.59 c -30.5,52.73 41.8,145.74 90.2,199.02 190.5,209.77 450.1,374.22 178.4,783.24 M 14599.7,3726.25 c -24.9,55.7 -142.5,51.91 -214,43.98 -281.8,-30.89 -567.4,-144.25 -738.6,316.14 m 952.6,-360.12 c -24.9,55.7 56.7,140.47 110.4,188.48 211.4,188.75 486.9,325.19 259.4,760.35 M 13794.8,3417.3 c -18.7,57.97 -136.1,66.45 -208.1,66.18 -283.4,-1.21 -579.4,-84.26 -701.4,391.52 m 909.5,-457.7 c -18.7,57.97 71.2,133.87 129.6,175.94 230,165.55 518.2,272.42 337.4,729.06 M 12962.3,3194.18 c -12.7,59.57 -128.5,80.31 -200.1,87.62 -282,28.32 -585.1,-23.21 -656.8,462.65 m 856.9,-550.27 c -12.7,59.57 84.7,125.78 147.2,161.37 246,140.58 543.8,216.75 411.7,689.96 m -1410.4,-986.13 c -6.4,60.66 -119.3,93.28 -189.8,107.96 -277.5,57.7 -584.3,38.13 -604.8,528.87 m 794.6,-636.83 c -6.4,60.66 97.4,116.05 163.3,145.03 259.4,114.22 563.6,158.83 481.6,643.05 M 11250,3014.18 c 0,60.94 -109.1,105.31 -177.5,127.3 -270,86.41 -577.1,98.95 -546.2,589.22 m 723.7,-716.52 c 0,60.94 109.1,105.31 177.5,127.3 270,86.41 577.1,98.95 546.2,589.22 m -1584.5,-671.32 c 6.4,60.66 -97.4,116.05 -163.3,145.03 -259.45,114.22 -563.56,158.83 -481.6,643.05 m 644.9,-788.08 c 6.4,60.66 119.3,93.28 189.8,107.96 277.5,57.7 584.3,38.13 604.8,528.87 M 9537.73,3194.18 c 12.7,59.57 -84.64,125.62 -147.22,161.37 -246.02,140.58 -543.79,216.75 -411.68,689.96 m 558.9,-851.33 c 12.7,59.57 128.64,80.31 200.08,87.62 281.99,28.32 585.09,-23.21 656.79,462.65 M 8705.16,3417.3 c 18.75,57.97 -71.21,133.87 -129.57,175.94 -229.97,165.55 -518.21,272.42 -337.43,729.06 m 467,-905 c 18.75,57.97 136.13,66.45 208.12,66.18 283.4,-1.21 579.42,-84.26 701.45,391.52 M 7900.35,3726.25 c 24.77,55.7 -56.8,140.47 -110.47,188.48 -211.36,188.75 -486.91,325.04 -259.22,760.35 m 369.69,-948.83 c 24.77,55.7 142.46,51.91 213.91,43.98 281.79,-30.89 567.42,-144.25 738.63,316.14 m -1720.59,31.25 c 30.47,52.73 -41.79,145.74 -90.19,199.02 -190.47,209.77 -450.16,374.22 -178.36,783.24 m 268.55,-982.26 c 30.47,52.73 147.08,36.68 217.31,21.44 277.07,-60.11 549.26,-202.89 767.62,237.15 M 6409.3,4587.19 c 35.86,49.18 -26.29,149.26 -68.75,207.19 -167.58,228.63 -408.75,419.29 -95.59,797.69 m 369.69,-948.83 c 24.77,55.7 142.46,51.91 213.91,43.98 281.79,-30.89 567.42,-144.25 738.63,316.14 m -1720.59,31.25 c 30.47,52.73 -41.79,145.74 -90.19,199.02 -190.47,209.77 -450.16,374.22 -178.36,783.24 m 268.55,-982.26 c 30.47,52.73 147.08,36.68 217.31,21.44 277.07,-60.11 549.26,-202.89 767.62,237.15 M 6409.3,4587.19 c 35.86,49.18 150.15,21.01 218.4,-1.49 269.21,-88.71 525.11,-259.1 788.24,155.59 m -1676.53,388.36 c 40.82,45.31 -10.5,151.13 -46.79,213.28 -142.78,244.84 -362.62,459.73 -11.6,803.36 m 58.39,-1016.64 c 40.82,45.31 151.53,5.27 217.04,-24.26 258.47,-116.48 495.03,-312.62 800.15,72.42 m -1626.68,561.33 c 45.28,40.86 5.28,151.52 -24.26,217.19 -116.48,258.32 -312.61,495.04 72.39,800.12 m -48.13,-1017.31 c 45.28,40.86 151.13,-10.51 213.28,-46.76 244.85,-142.77 459.73,-362.65 803.36,-11.6 m -1559.14,728.36 c 49.22,35.86 21.06,150.08 -1.48,218.4 -88.67,269.1 -259.1,525.12 155.74,788.24 M 4587.42,6409.14 c 49.22,35.86 149.26,-26.25 207.23,-68.87 228.67,-167.54 419.26,-408.63 797.69,-95.54 m -1474.45,887.46 c 52.85,30.43 36.68,147.03 21.41,217.26 -60.12,276.96 -202.74,549.26 237.18,767.66 m -258.59,-984.92 c 52.85,30.43 145.74,-41.8 198.99,-90.24 209.8,-190.58 374.21,-450.27 783.24,-178.36 M 3726.52,7900.2 c 55.67,24.8 51.92,142.46 44.1,213.94 -30.85,281.76 -144.25,567.42 315.98,738.63 M 3726.52,7900.2 c 55.67,24.8 140.63,-56.76 188.48,-110.43 188.75,-211.53 325.16,-486.92 760.35,-259.34 M 3417.66,8705.04 c 58,18.87 66.48,136.13 66.05,208.12 -1.21,283.4 -84.1,579.42 391.68,701.57 m -457.73,-909.69 c 58,18.87 133.86,-71.21 175.82,-129.57 165.54,-230 272.46,-518.24 729.18,-337.42 M 3194.57,9537.77 c 59.57,12.66 80.31,128.44 87.46,200.04 28.48,281.99 -23.16,585.09 462.81,656.79 m -550.27,-856.83 c 59.57,12.66 125.63,-84.8 161.37,-147.22 140.62,-246.17 216.79,-543.99 689.8,-411.84 m -985.97,1410.39 c 60.5,6.5 93.28,119.5 107.96,190 57.7,277.4 38.01,584.2 528.75,604.7 m -636.71,-794.7 c 60.5,6.5 116.05,-97.3 145.03,-163.3 114.07,-259.32 158.68,-563.5 643.09,-481.5 M 3014.57,11250 c 60.98,0 105.31,109.1 127.31,177.6 86.4,269.9 98.94,577.1 589.1,546.2 M 3014.57,11250 c 60.98,0 105.31,-109.1 127.31,-177.6 86.4,-269.9 98.94,-577 589.1,-546.2 m -671.21,1584.7 c 60.5,-6.5 116.05,97.3 145.03,163.3 114.07,259.3 158.68,563.5 643.09,481.5 m -788.12,-644.8 c 60.5,-6.5 93.28,-119.5 107.96,-190 57.7,-277.4 38.01,-584.2 528.75,-604.7 m -501.91,1646 c 59.57,-12.6 125.63,84.8 161.37,147.2 140.62,246.2 216.79,544 689.8,411.9 m -851.17,-559.1 c 59.57,-12.6 80.31,-128.4 87.46,-200 28.48,-282 -23.16,-585.1 462.81,-656.8 M 3417.66,13795 c 58,-18.9 133.86,71.2 175.82,129.5 165.54,230 272.46,518.3 729.18,337.4 m -905,-466.9 c 58,-18.9 66.48,-136.2 66.05,-208.2 -1.21,-283.3 -84.1,-579.4 391.68,-701.5 m -148.87,1714.5 c 55.67,-24.8 140.63,56.8 188.48,110.4 188.75,211.6 325.16,487 760.35,259.4 m -948.83,-369.8 c 55.67,-24.8 51.92,-142.5 44.1,-213.9 -30.85,-281.8 -144.25,-567.5 315.98,-738.7 m 31.29,1720.6 c 52.85,-30.4 145.74,41.8 198.99,90.3 209.8,190.5 374.21,450.2 783.24,178.3 m -982.23,-268.6 c 52.85,-30.4 36.68,-147 21.41,-217.2 -60.12,-277 -202.74,-549.3 237.18,-767.7 m 210.94,1708 c 49.22,-35.9 149.26,26.2 207.23,68.8 228.67,167.6 419.26,408.7 797.69,95.6 m -1004.92,-164.4 c 49.22,-35.9 21.06,-150.1 -1.48,-218.4 -88.67,-269.3 -259.1,-525.2 155.74,-788.3 m 388.24,1676.7 c 45.31,-40.9 151.13,10.5 213.28,46.7 244.85,142.8 459.73,362.7 803.36,11.6 m -1016.64,-58.3 c 45.31,-40.9 5.28,-151.6 -24.26,-217.2 -116.48,-258.3 -312.61,-495.1 72.39,-800.1 m 561.36,1626.8 c 40.82,-45.4 151.53,-5.3 217.04,24.2 258.47,116.5 495.03,312.7 800.15,-72.4 m -1017.19,48.2 c 40.82,-45.4 -10.5,-151.2 -46.79,-213.3 -142.78,-244.9 -362.62,-459.8 -11.57,-803.4 m 728.25,1559.2 c 35.86,-49.3 150.15,-21.1 218.4,1.4 269.21,88.7 525.11,259.1 788.24,-155.5 m -1006.64,154 c 35.86,-49.2 -26.29,-149.2 -68.75,-207.2 -167.58,-228.6 -408.75,-419.3 -95.59,-797.7 m 887.34,1474.4 c 30.47,-52.6 147.08,-36.6 217.31,-21.4 277.07,60.2 549.26,202.9 767.62,-237.1 m -984.93,258.5 c 30.47,-52.6 -41.79,-145.7 -90.19,-198.9 -190.47,-209.8 -450.12,-374.3 -178.36,-783.3 m 1036.6,1373.6 c 24.77,-55.6 142.46,-51.9 213.91,-43.9 281.79,30.9 567.42,144.2 738.63,-316.2 m -952.54,360.1 c 24.77,-55.6 -56.8,-140.4 -110.47,-188.4 -211.36,-188.8 -486.91,-325.2 -259.22,-760.4 m 1174.5,1257.8 c 18.75,-58 136.13,-66.4 208.12,-66.2 283.4,1.2 579.42,84.2 701.45,-391.6 m -909.57,457.8 c 18.75,-58 -71.21,-133.9 -129.57,-175.9 -229.97,-165.6 -518.21,-272.5 -337.43,-729.1 m 1299.57,1128.1 c 12.7,-59.7 128.64,-80.3 200.08,-87.6 281.99,-28.3 585.09,23.2 656.79,-462.6 m -856.87,550.2 c 12.7,-59.7 -84.64,-125.8 -147.22,-161.4 -246.02,-140.5 -543.79,-216.7 -411.68,-689.9 m 1410.37,986.1 c 6.4,-60.6 119.3,-93.3 189.8,-107.9 277.5,-57.7 584.3,-38.2 604.8,-528.9 m -794.6,636.8 c 6.4,-60.6 -97.4,-116 -163.3,-145 -259.45,-114.2 -563.56,-158.8 -481.6,-643.1 m 1505.7,833.3 c 0,-61 109.1,-105.3 177.5,-127.3 270,-86.4 577.1,-98.9 546.2,-589.2 m -723.7,716.5 c 0,-61 -109.1,-105.3 -177.5,-127.3 -270,-86.4 -577.1,-98.9 -546.2,-589.2"
       style="fill:none;stroke:#ffffff;stroke-width:60.0001;stroke-linecap:round;stroke-linejoin:miter;stroke-miterlimit:4;stroke-dasharray:none;stroke-opacity:1"
       transform="matrix(0.13333333,0,0,-0.13333333,0,3000)"
       clip-path="url(#clipPath34)" />
    <path
       id="path35"
       d="m 12346.8,15689.9 c 0,0 460.7,488.6 625.4,-203.1 m 273.8,-122 c 0,0 552.1,382.1 569.4,-328.7 m 242.5,-176.2 c 0,0 619.4,259 488.5,-439.9 m 200.6,-222.7 c 0,0 659.8,124.5 386.6,-532 m 149.7,-259.6 c 0,0 671.2,-15.3 267.5,-600.6 m 92.6,-285.2 c 0,0 653.3,-154.5 136.7,-643 m 31.3,-298.1 c 0,0 607,-287.2 0,-657.6 m -31.3,-298.1 c 0,0 534,-406.8 -136.7,-643.02 m -92.6,-285.16 c 0,0 437.7,-509.06 -267.5,-600.58 m -149.7,-259.61 c 0,0 322.3,-589.03 -386.6,-532 M 14546.4,8080 c 0,0 192.9,-643.16 -488.5,-439.88 m -242.5,-176.17 c 0,0 54.9,-669.22 -569.4,-328.79 m -273.8,-121.92 c 0,0 -85.4,-665.97 -625.4,-203.12 m -293,-62.31 c 0,0 -222.1,-633.75 -653.9,-68.75 m -299.7,0 c 0,0 -349,-573.75 -653.9,68.75 m -293.1,62.31 c 0,0 -460.66,-488.6 -625.43,203.12 m -273.79,121.92 c 0,0 -552.07,-382.11 -569.33,328.79 m -242.5,176.17 c 0,0 -619.45,-259.07 -488.56,439.88 m -200.62,222.73 c 0,0 -659.77,-124.57 -386.37,532 m -149.92,259.61 c 0,0 -671.21,15.23 -267.46,600.58 m -92.62,285.16 c 0,0 -653.28,154.52 -136.68,643.02 m -31.29,298.1 c 0,0 -607.07,287.2 0,657.6 m 31.29,298.1 c 0,0 -533.98,406.9 136.68,643 m 92.62,285.2 c 0,0 -437.74,509 267.46,600.6 m 149.92,259.6 c 0,0 -322.46,589 386.37,532 m 200.62,222.7 c 0,0 -192.93,643.2 488.56,439.9 m 242.5,176.2 c 0,0 -55,669.2 569.33,328.7 m 273.79,122 c 0,0 85.47,665.9 625.43,203.1 m 293.1,62.3 c 0,0 222,633.7 653.9,68.7 m 299.7,0 c 0,0 348.9,573.8 653.9,-68.7"
       style="fill:none;stroke:#ffffff;stroke-width:60.0001;stroke-linecap:round;stroke-linejoin:miter;stroke-miterlimit:4;stroke-dasharray:none;stroke-opacity:1"
       transform="matrix(0.13333333,0,0,-0.13333333,0,3000)"
       clip-path="url(#clipPath36)" />
    <path
       id="path37"
       d="m 10304,14570.3 -238.2,809.7 m 472.1,-751.7 -181.1,824.2 m 418.5,-782.8 -123.2,834.8 m 362.9,-810.1 -64.7,841.6 m 305.5,-833.5 -5.8,843.8 m 246.6,-852.7 53.1,842.4 m 186.6,-868 111.6,836.5 m 125.5,-878.7 169.8,826.7 m 63.9,-885.3 227.1,812.8 m 2,-887.8 283.1,795 m -59.9,-885.6 338,773.3 m -121.6,-879.2 391.1,747.8 m -182.5,-868.8 442.2,718.9 m -242.7,-853.9 491.4,686.2 m -301.7,-835 537.9,650.3 m -359.2,-811.7 582,611.1 m -414.8,-784.8 623.1,569.1 m -468.6,-753.9 661.4,524.2 m -520,-719.4 696.3,476.7 m -569,-681.2 727.9,426.9 m -615,-639.9 755.8,375.1 m -658.3,-595.4 780.2,321.4 m -698.2,-548 800.8,266.3 m -734.7,-498.1 817.3,209.8 m -767.6,-445.6 830,152.3 m -796.8,-391 838.5,94 m -822.2,-334.4 843.2,35.2 m -843.6,-276.2 843.6,-23.6 m -860.7,-216.8 839.7,-82.4 m -873.7,-156.1 832,-140.9 m -882.6,-94.7 820.2,-198.6 m -886.9,-33 804.3,-255.26 m -887.1,29.03 784.5,-310.75 m -882.9,90.71 761,-364.77 m -874.5,152.19 733.7,-416.99 m -861.8,212.89 702.9,-467.11 m -844.9,272.26 668.6,-514.96 m -823.7,330.71 630.9,-560.43 m -798.6,387.34 590.3,-603.05 m -769.6,442.07 546.8,-642.65 m -737.1,494.65 500.9,-679.34 m -700.8,544.88 452.1,-712.57 m -661,592.5 401.3,-742.43 m -618,637.11 348.5,-768.55 m -572.1,678.67 294,-790.94 m -523.3,716.92 238.2,-809.69 m -472.1,751.68 181.1,-824.22 m -418.5,782.85 123.2,-834.88 m -362.9,810.08 64.7,-841.53 m -305.5,833.44 5.8,-843.79 m -246.6,852.7 -53.1,-842.35 m -186.6,867.97 -111.6,-836.52 m -125.5,878.71 -169.8,-826.68 m -63.9,885.31 -227.1,-812.77 m -2,887.73 -283.14,-794.96 m 59.89,885.55 -338.01,-773.28 m 121.64,879.26 -391.09,-747.82 m 182.53,868.75 -442.18,-718.82 m 242.65,853.9 -491.29,-686.21 m 301.61,834.92 -537.93,-650.23 m 359.18,811.68 -582,-611.1 m 414.81,784.77 -623.09,-569.06 m 468.6,753.86 -661.41,-524.14 m 520.12,719.38 -696.41,-476.68 m 569.02,681.17 -727.85,-426.95 m 615,639.96 -755.86,-375.16 m 658.29,595.47 -780.2,-321.41 m 698.2,547.98 -800.78,-266.26 m 734.73,498.06 -817.35,-209.8 m 767.58,445.6 -830.04,-152.3 m 796.92,391 -838.56,-94 m 822.27,334.4 -843.28,-35.2 m 843.63,276.2 -843.63,23.6 m 860.74,216.8 -839.73,82.4 m 873.75,156.1 -832.11,140.9 m 882.66,94.7 -820.2,198.6 m 886.92,33 -804.3,255.3 m 887.07,-29.1 -784.49,310.8 m 882.93,-90.7 -761.02,364.7 m 874.53,-152.1 -733.67,416.9 m 861.72,-212.8 -702.89,467.1 m 844.84,-272.3 -668.55,515 m 823.75,-330.8 -630.94,560.5 m 798.6,-387.4 -590.32,603.1 m 769.65,-442.1 -546.83,642.7 m 737.07,-494.7 -500.75,679.4 m 700.67,-544.9 -452.03,712.6 m 660.97,-592.5 -401.32,742.4 m 617.96,-637.1 -348.51,768.5 m 572.16,-678.6 -294.04,790.9"
       style="fill:#000000;fill-opacity:1;fill-rule:nonzero;stroke:#ffffff;stroke-width:60.0001;stroke-linecap:butt;stroke-linejoin:miter;stroke-miterlimit:4;stroke-dasharray:none;stroke-opacity:1"
       transform="matrix(0.13333333,0,0,-0.13333333,0,3000)"
       clip-path="url(#clipPath38)" />
    <path
       id="path39"
       d="M 11250,19485.8 C 9065.78,19485.8 6971.21,18618 5426.64,17073.6 3882.23,15529.1 3014.57,13434.2 3014.57,11250 c 0,-4548.44 3687.15,-8235.82 8235.43,-8235.82 4548.3,0 8235.4,3687.38 8235.4,8235.82 0,4548.4 -3687.1,8235.8 -8235.4,8235.8 z m 0,-681.7 c 2003.4,0 3924.6,-795.9 5341.3,-2212.6 1416.6,-1416.6 2212.5,-3338.1 2212.5,-5341.5 0,-2003.44 -795.9,-3924.92 -2212.5,-5341.52 C 15174.6,4491.76 13253.4,3695.94 11250,3695.94 c -2003.44,0 -3924.65,795.82 -5341.25,2212.54 -1416.64,1416.6 -2212.54,3338.08 -2212.54,5341.52 0,2003.4 795.9,3924.9 2212.54,5341.5 1416.6,1416.7 3337.81,2212.6 5341.25,2212.6 z"
       style="fill:none;stroke:#ffffff;stroke-width:60.0001;stroke-linecap:round;stroke-linejoin:miter;stroke-miterlimit:4;stroke-dasharray:none;stroke-opacity:1"
       transform="matrix(0.13333333,0,0,-0.13333333,0,3000)"
       clip-path="url(#clipPath40)" />
    <path
       id="path41"
       d="m 11250,16105.9 c -1287.89,0 -2522.89,-511.6 -3433.52,-1422.3 -910.66,-910.6 -1422.3,-2145.7 -1422.3,-3433.6 0,-1287.85 511.64,-2523.01 1422.3,-3433.67 910.63,-910.67 2145.63,-1422.27 3433.52,-1422.27 2681.8,0 4855.8,2173.99 4855.8,4855.94 0,2681.9 -2174,4855.9 -4855.8,4855.9 z m 0,-529.5 c 1147.4,0 2247.7,-455.8 3059.1,-1267.1 811.4,-811.4 1267.2,-1911.9 1267.2,-3059.3 0,-1147.4 -455.8,-2247.85 -1267.2,-3059.3 -811.4,-811.29 -1911.7,-1267.07 -3059.1,-1267.07 -1147.4,0 -2247.73,455.78 -3059.18,1267.07 -811.29,811.45 -1267.07,1911.9 -1267.07,3059.3 0,1147.4 455.78,2247.9 1267.07,3059.3 811.45,811.3 1911.78,1267.1 3059.18,1267.1 z"
       style="fill:none;stroke:#ffffff;stroke-width:60.0001;stroke-linecap:butt;stroke-linejoin:miter;stroke-miterlimit:4;stroke-dasharray:none;stroke-opacity:1"
       transform="matrix(0.13333333,0,0,-0.13333333,0,3000)"
       clip-path="url(#clipPath42)" />
    <path
       id="path43"
       d="m 14702.4,11250 c 0,-1906.8 -1545.8,-3452.54 -3452.4,-3452.54 -1906.64,0 -3452.42,1545.74 -3452.42,3452.54 0,915.6 363.71,1793.8 1011.25,2441.3 647.5,647.5 1525.47,1011.2 2441.17,1011.2 1906.6,0 3452.4,-1545.7 3452.4,-3452.5 z"
       style="fill:none;stroke:#ffffff;stroke-width:60.0001;stroke-linecap:butt;stroke-linejoin:miter;stroke-miterlimit:4;stroke-dasharray:none;stroke-opacity:1"
       transform="matrix(0.13333333,0,0,-0.13333333,0,3000)"
       clip-path="url(#clipPath44)" />
  </g>
</svg>
